<svg width="140" height="45" viewBox="0 0 140 45" xmlns="http://www.w3.org/2000/svg">
    <g fill="none" fill-rule="evenodd">
        <path d="M24.569 24.596a3.49 3.49 0 0 0 .51-.643l5.896-9.582c.215-.346-.185-.745-.525-.52l-9.606 6.018a3.475 3.475 0 0 0-.65.528l-.003.004a3.054 3.054 0 0 0 .068 4.297 3.01 3.01 0 0 0 4.272-.068c.011-.008.023-.023.038-.034zM14.816 8.12c.869-.46 1.783-.843 2.735-1.14a1.74 1.74 0 0 0 1.231-1.66V1.23c0-.767-.706-1.337-1.454-1.174a22.355 22.355 0 0 0-7.226 3.006 1.208 1.208 0 0 0-.204 1.862l2.878 2.895a1.726 1.726 0 0 0 2.04.3zm10.705-6.915v4.077c0 .767.502 1.44 1.23 1.66 1.119.335 2.184.794 3.185 1.357a1.72 1.72 0 0 0 2.066-.285l2.856-2.873a1.207 1.207 0 0 0-.182-1.85A22.467 22.467 0 0 0 26.96.027c-.737-.16-1.44.414-1.44 1.178zM1.283 18.885h3.77c.917 0 1.74-.59 2.02-1.467.306-.969.702-1.896 1.178-2.774.367-.68.253-1.52-.29-2.067L5.094 9.693a1.189 1.189 0 0 0-1.844.19 22.627 22.627 0 0 0-3.13 7.558 1.197 1.197 0 0 0 1.163 1.444zm35.067-3.918c.396.775.732 1.588 1 2.432a2.124 2.124 0 0 0 2.025 1.482h3.77a1.19 1.19 0 0 0 1.16-1.448 22.628 22.628 0 0 0-2.909-7.196 1.188 1.188 0 0 0-1.855-.21l-2.89 2.907a1.747 1.747 0 0 0-.301 2.033z" fill="#00ECA1" fill-rule="nonzero"/>
        <path d="M39.45 25.413c-.932 0-1.76.611-2.035 1.512-1.987 6.547-8.05 11.323-15.2 11.323-7.15 0-13.212-4.776-15.199-11.323a2.125 2.125 0 0 0-2.036-1.512H.965a.964.964 0 0 0-.948 1.14C2.012 37.058 11.194 45 22.216 45c11.025 0 20.204-7.941 22.198-18.448a.964.964 0 0 0-.948-1.14H39.45z" fill="#FDE1AD"/>
        <path d="M57.006 22.1c0-4.077 2.722-6.508 6.39-6.508 3.816 0 6.485 2.626 6.485 6.532 0 4.222-3.11 6.238-5.829 6.238-1.432 0-2.646-.564-3.4-1.646v6.508h-3.646V22.101zm9.18-.121c0-1.742-1.116-2.946-2.77-2.946-1.652 0-2.772 1.204-2.772 2.946 0 1.741 1.116 2.946 2.771 2.946 1.655 0 2.771-1.2 2.771-2.946zm5.467-9.527c0-1.349.995-2.359 2.333-2.359 1.335 0 2.334 1.006 2.334 2.36 0 1.348-.995 2.358-2.334 2.358-1.338 0-2.333-1.006-2.333-2.359zm.509 3.464h3.641v12.13h-3.641v-12.13zm6.28-5.304h3.642v17.434h-3.641V10.612zm6.187 11.367c0-3.685 2.673-6.383 6.462-6.383 3.789 0 6.462 2.702 6.462 6.383s-2.673 6.383-6.462 6.383c-3.789 0-6.462-2.698-6.462-6.383zm9.233 0c0-1.742-1.116-2.946-2.77-2.946-1.652 0-2.772 1.204-2.772 2.946 0 1.741 1.116 2.946 2.771 2.946 1.651 0 2.771-1.2 2.771-2.946zm6.111 1.277V11.618h3.642v4.298h5.685v3.315h-5.685v4.028c0 1.277.585 1.67 1.384 1.67.8 0 1.383-.393 1.383-1.67v-.37h3.642v.37c0 3.464-2.04 5.107-5.029 5.107-2.99 0-5.022-1.647-5.022-5.11zm11.842-1.277c0-3.685 2.673-6.383 6.462-6.383 3.789 0 6.39 2.702 6.39 6.383v1.033h-9.06c.291 1.425 1.362 2.061 2.674 2.061 1.044 0 1.82-.22 2.284-.884h3.767c-.777 2.504-3.062 4.173-6.048 4.173-3.796 0-6.469-2.698-6.469-6.383zm9.112-1.3c-.41-1.253-1.383-1.79-2.646-1.79s-2.236.563-2.598 1.79h5.244zm6.198 1.449c0-3.903 2.673-6.532 6.485-6.532 3.766 0 6.39 2.53 6.39 6.509v5.94h-3.352v-2.011c-.633 1.497-1.99 2.332-3.717 2.332-2.673-.004-5.806-2.016-5.806-6.238zm9.23-.149c0-1.742-1.117-2.946-2.772-2.946-1.655 0-2.77 1.204-2.77 2.946 0 1.741 1.115 2.946 2.77 2.946s2.771-1.2 2.771-2.946z" fill="#283A3E" fill-rule="nonzero"/>
    </g>
</svg>
