<svg width="50" height="50" viewBox="0 0 50 50" xmlns="http://www.w3.org/2000/svg">
    <g fill-rule="nonzero" fill="none">
        <path d="M35.526 15c1.43 0 2.387.43 2.827 1.444.181.417.249.723.244 1.295l-.01.378-.028.46-.062.866-.031.549-.014.487v.23l.004.19.384.213c1.739 1 3.467 2.42 4.397 3.64l.146.202 3.77.745c.897.2 1.54.97 1.594 1.933l.003.195-.016.165-.914 7.34c-.108.875-.578 1.394-1.485 1.71l-.239.078-.282.08-.348.09-2.02.479-.185.33a12.638 12.638 0 0 1-3.703 3.992l-.288.191-.584 5.871c-.089.889-.738 1.607-1.653 1.804l-.187.032-.2.011h-5.483c-.95.003-1.774-.648-2.012-1.644l-.033-.205-.356-3.658H22.58l-.357 3.66c-.089.889-.738 1.607-1.653 1.804l-.187.032-.2.011h-5.483c-.95.003-1.774-.649-2.012-1.644l-.032-.204-.578-5.876-.198-.132a13.078 13.078 0 0 1-5.518-9.03l-.048-.41-.034-.387v-.187l.082-1.045c.02-.22.044-.442.073-.664-1.325-.725-2.421-.475-3.254.36a1.13 1.13 0 0 1-1.6.003 1.135 1.135 0 0 1-.002-1.603c1.37-1.374 3.283-1.887 5.315-1.05.604-2.217 1.638-4.325 2.946-5.718 2-2.131 4.658-3.523 7.578-3.955l.39-.046c.368-.043.727.098.97.365h7.363l.011-.02c.19-.331.533-.545.913-.568h.143c.965.064 1.908.156 2.822.276l-.609-.075.145-.162c1.765-1.934 3.567-3.023 5.416-3.202l.252-.018zm0 2.266c-1.453 0-3.05.978-4.774 3.048a1.13 1.13 0 0 1-1.015.398 39.75 39.75 0 0 0-1.319-.15l-.616-.056-.063.097a1.131 1.131 0 0 1-.621.407l-.125.024-.15.01h-8.708a1.13 1.13 0 0 1-.699-.242l-.048-.043-.09.016c-2.081.393-4 1.398-5.512 2.886l-.297.304c-1.5 1.598-2.638 4.615-2.871 7.308l-.075.946.024.272a10.803 10.803 0 0 0 4.848 7.955l.32.2c.306.184.507.503.542.86l.609 6.226 5.106.003.438-4.485c.052-.532.466-.948.983-1.014l.143-.009h8.231c.582 0 1.069.442 1.126 1.023l.434 4.482 5.107.003.622-6.231c.03-.302.18-.577.411-.766l.123-.087.362-.223a10.357 10.357 0 0 0 3.696-4.14c.148-.3.42-.519.744-.599l.386-.094 2.253-.538.367-.1.174-.055.877-7.029-4.005-.791a1.13 1.13 0 0 1-.692-.44l-.077-.119-.084-.152c-.544-.895-2.228-2.334-3.898-3.294-.267-.154-.545-.3-.834-.438a1.133 1.133 0 0 1-.64-.922c-.078-.888-.061-1.619.024-2.75l.042-.591.016-.3.008-.236-.004-.254-.013-.118a.684.684 0 0 0-.01-.046l-.024-.075c-.003-.008-.014-.018-.041-.028l-.077-.019a1.187 1.187 0 0 0-.06-.009l-.168-.015-.248-.009zm2.414 9.751a3.873 3.873 0 0 1 3.866 3.88 1.132 1.132 0 0 1-2.253.142l-.009-.142c0-.892-.719-1.614-1.604-1.614-.83 0-1.514.635-1.596 1.45l-.008.164a1.132 1.132 0 1 1-2.262 0c0-2.142 1.73-3.88 3.866-3.88z" fill="#283A3E"/>
        <path d="M23.145 12.875c-3.627 0-6.567 2.946-6.567 6.58 0 1.17.307 2.298.88 3.29l.324.563h10.725l.325-.563c.572-.992.879-2.12.879-3.29 0-3.634-2.94-6.58-6.566-6.58zm-4.321-8.546c.573 0 1.046.43 1.116.984l.009.141v5.455a1.125 1.125 0 0 1-2.242.141l-.008-.141V5.454c0-.62.503-1.125 1.125-1.125zM22.45 0c.574 0 1.047.43 1.116.984l.01.141v6.023a1.125 1.125 0 0 1-2.242.14l-.009-.14V1.125C21.326.504 21.83 0 22.451 0zm3.628 3.42c.573 0 1.046.43 1.116.984l.009.141V10a1.125 1.125 0 0 1-2.242.141L24.954 10V4.545c0-.62.503-1.125 1.125-1.125z" fill="#00ECA1"/>
        <path d="M28.586 21.034a1.125 1.125 0 0 1 .14 2.241l-.14.009h-10.67a1.125 1.125 0 0 1-.14-2.241l.14-.01h10.67z" fill="#283A3E"/>
    </g>
</svg>
