<svg width="50" height="50" viewBox="0 0 50 50" xmlns="http://www.w3.org/2000/svg">
    <g fill-rule="nonzero" fill="none">
        <path d="M40.5 0c1.043 0 1.9.815 1.992 1.855l.008.186v45.918c0 1.065-.799 1.939-1.818 2.033L40.5 50h-31c-1.105 0-2-.914-2-2.04V2.04C7.5.915 8.395 0 9.5 0h31zm-.249 2.25H9.75v45.5l30.5.001.001-45.501zM35 40.188a1.125 1.125 0 0 1 .141 2.24l-.141.01H16.25a1.125 1.125 0 0 1-.141-2.242l.141-.008H35zm0-5a1.125 1.125 0 0 1 .141 2.24l-.141.01H16.25a1.125 1.125 0 0 1-.141-2.242l.141-.008H35zm-10-5a1.125 1.125 0 0 1 .141 2.24l-.141.01h-8.75a1.125 1.125 0 0 1-.141-2.242l.141-.009H25z" fill="#283A3E"/>
        <path d="M24.687 6.594 18.795 9.51a2.103 2.103 0 0 0-1.17 1.878v6.534a6.212 6.212 0 0 0 2.805 5.195l4.026 2.658.145.082c.37.172.691.268 1.02.268.414 0 .82-.122 1.165-.35l4.027-2.66a6.21 6.21 0 0 0 2.812-5.194v-6.533c0-.391-.11-.775-.317-1.107-.165-.263-.4-.475-.717-.692l-.135-.079-5.893-2.916a2.116 2.116 0 0 0-1.876 0zm.938 2.046 5.75 2.845v6.437l-.008.248a3.966 3.966 0 0 1-1.79 3.066l-3.955 2.613-3.953-2.61-.205-.145a3.959 3.959 0 0 1-1.589-3.17v-6.439l5.75-2.845z" fill="#00ECA1"/>
    </g>
</svg>
