<svg width="50" height="50" viewBox="0 0 50 50" xmlns="http://www.w3.org/2000/svg">
    <g fill-rule="nonzero" fill="none">
        <path d="M37.193 15.598c1.415 0 2.758.642 3.664 1.754l7.23 8.867a2.972 2.972 0 0 1-.264 4.029l-9.47 8.871-1.377 1.29-9.417 8.822a2.815 2.815 0 0 1-3.868 0l-9.417-8.822-1.377-1.29-9.469-8.871a2.97 2.97 0 0 1-.265-4.029l7.231-8.867a4.728 4.728 0 0 1 3.664-1.754zm-5.3 13.65H19.355l6.269 17.62 6.269-17.62zm14.172 0H33.922l-6.07 17.062 18.213-17.062zm-28.74 0H5.183L23.396 46.31l-6.07-17.062zm19.867-11.7h-5.576L34 27.299h12.48l-7.09-8.696a2.837 2.837 0 0 0-2.198-1.053zm-7.544 0H21.6l-2.385 9.75h12.818l-2.385-9.75zm-10.015 0h-5.575c-.85 0-1.655.386-2.199 1.053l-7.092 8.697h12.48l2.386-9.75z" fill="#283A3E"/>
        <path d="m18.036 6.144 6.33-5.662a1.88 1.88 0 0 1 2.515 0l6.33 5.662 4.419-4.515a1.878 1.878 0 0 1 2.079-.422 1.952 1.952 0 0 1 1.177 1.801V9.75a3.945 3.945 0 0 1-1.118 2.758 3.776 3.776 0 0 1-2.698 1.142H14.177a3.777 3.777 0 0 1-2.698-1.142 3.946 3.946 0 0 1-1.118-2.758v-6.74c0-.79.465-1.5 1.177-1.802a1.879 1.879 0 0 1 2.08.422l4.418 4.515zm7.588-4.194L18.62 8.212a.94.94 0 0 1-1.303-.044l-5.048-5.16V9.75c0 .517.2 1.014.56 1.379.356.366.842.571 1.348.571H37.07c.505 0 .992-.205 1.348-.571.36-.366.56-.862.56-1.38v-6.74l-5.049 5.16a.94.94 0 0 1-1.303.044L25.624 1.95z" fill="#00ECA1"/>
    </g>
</svg>
