<svg width="50" height="50" viewBox="0 0 50 50" xmlns="http://www.w3.org/2000/svg">
    <g fill-rule="nonzero" fill="none">
        <path d="M41.274 12.5c.386 0 .746.197.954.523.102.16.18.333.23.515.028.1.042.203.042.306v2.76c0 .103-.014.206-.042.306-.087.31-.25.593-.545.888l-.175.146-5.988 4.335-.323.234-.16.12a1.206 1.206 0 0 0 .847 2.113l.135-.012c.133-.02.256-.06.358-.118l.141-.087 3.985-2.698a1.131 1.131 0 0 1 1.765.94v11.025c0 .627-.507 1.134-1.132 1.134H32.17l-21.582 8.737a1.13 1.13 0 0 1-.28.074l-.144.009H8.67c-.461 0-.876-.28-1.049-.71l-3.27-8.11H1.132a1.133 1.133 0 0 1-1.125-1.01L0 33.796v-20.16c0-.626.507-1.134 1.132-1.134zM26.127 34.93H22.1l-8.38 3.394a1.13 1.13 0 0 1-1.421-.515l-.053-.112-.064-.137a1.382 1.382 0 0 0-2.098-.414l-.114.083a1.13 1.13 0 0 1-1.654-.534l-.712-1.765H6.79l2.642 6.551h.512l16.183-6.551zm-10.07 0h-3.501l.114.056c.293.156.566.352.81.584l.177.18.096.113 2.304-.933zm24.179-20.162H2.263v17.894H40.234v-7.758l-1.006.681.002 1.961c0 .676-.581 1.191-1.234 1.13l-.124-.018-.137-.02-.14-.008c-.765 0-1.384.62-1.384 1.386l-.009.143c-.07.559-.546.991-1.123.991H7.42a1.133 1.133 0 0 1-1.132-1.134l-.008-.15a1.384 1.384 0 0 0-1.79-1.172l-.137.034a1.133 1.133 0 0 1-1.335-1.116V21.08c0-.766.742-1.312 1.471-1.082l.135.035a1.385 1.385 0 0 0 1.48-2.05l-.065-.128a1.134 1.134 0 0 1 1.043-1.575h28.335c.872 0 1.416.947.98 1.703l-.08.16a1.382 1.382 0 0 0-.039.957l3.959-2.863v-1.47zm-6.284 3.78H8.545l.005.128a3.652 3.652 0 0 1-3.221 3.63l-.05.003v4.073l.05.005a3.652 3.652 0 0 1 3.008 2.397l.032.098h25.759l.032-.098a3.663 3.663 0 0 1 1.313-1.74l.097-.066-.156-.024a3.465 3.465 0 0 1-2.08-1.265l.126.15a3.474 3.474 0 0 1-.07-.08l-.055-.07-.014-.017a3.48 3.48 0 0 1-.662-2.805 3.465 3.465 0 0 1 1.47-2.211l.033-.025.246-.178-.087-.166a3.65 3.65 0 0 1-.365-1.368l-.008-.243.004-.127zm-12.703 1.514a3.65 3.65 0 0 1 3.646 3.654 3.65 3.65 0 0 1-3.646 3.654 3.65 3.65 0 0 1-3.646-3.654 3.65 3.65 0 0 1 3.646-3.654zm0 2.268c-.764 0-1.383.62-1.383 1.386 0 .766.619 1.386 1.383 1.386s1.383-.62 1.383-1.386c0-.765-.62-1.386-1.383-1.386z" fill="#283A3E"/>
        <path d="M40.172 14.607v1.844l-6.166 4.545a3.548 3.548 0 0 0-1.478 2.261c-.18.93.01 1.894.53 2.679a3.482 3.482 0 0 0 2.239 1.502l.25.039a3.43 3.43 0 0 0 2.372-.603l6.155-5.096.055.005c1.343-.03 2.244-.395 3.13-1.198l.232-.219c.04-.038.08-.079.122-.122l.918-.967c.931-.97 1.298-1.887 1.418-3.422l.033-.568.016-.626.002-.337-.003-.705V8.66c0-.64-.51-1.16-1.137-1.16H34.272c-.571 0-1.133.144-1.637.417l-8.281 4.505c-1.045.568-.649 2.184.535 2.184h15.283zm-10.735-2.32 4.267-2.322.134-.063c.139-.054.286-.082.435-.082h13.449l.004 4.498-.008.6c-.035 1.397-.208 2.048-.707 2.622l-.88.935-.297.297a5.223 5.223 0 0 1-.085.078l-.143.124c-.376.307-.72.442-1.299.48l-.152.007.166.023c-.5-.099-1.017.01-1.439.3l-6.324 5.234c-.194.131-.521.202-.838.14a1.21 1.21 0 0 1-.777-.52 1.253 1.253 0 0 1-.184-.93c.063-.323.25-.606.518-.788l6.375-4.698c.5-.368.795-.958.795-1.586v-2.393c0-.519-.202-1.017-.562-1.384a1.9 1.9 0 0 0-1.357-.573l-11.091.001z" fill="#00ECA1"/>
    </g>
</svg>
